<?xml version="1.0" encoding="UTF-8"?>
<!DOCTYPE svg PUBLIC "-//W3C//DTD SVG 1.1//EN" "http://www.w3.org/Graphics/SVG/1.1/DTD/svg11.dtd">
<svg xmlns="http://www.w3.org/2000/svg" version="1.1" width="1024px" height="1024px" style="shape-rendering:geometricPrecision; text-rendering:geometricPrecision; image-rendering:optimizeQuality; fill-rule:evenodd; clip-rule:evenodd" xmlns:xlink="http://www.w3.org/1999/xlink">
<g><path style="opacity:1" fill="#080808" d="M -0.5,-0.5 C 340.833,-0.5 682.167,-0.5 1023.5,-0.5C 1023.5,340.833 1023.5,682.167 1023.5,1023.5C 682.167,1023.5 340.833,1023.5 -0.5,1023.5C -0.5,682.167 -0.5,340.833 -0.5,-0.5 Z"/></g>
<g><path style="opacity:1" fill="#fdfdfd" d="M 416.5,331.5 C 439.328,328.896 460.328,333.729 479.5,346C 493.1,357.7 499.766,372.534 499.5,390.5C 485.833,390.5 472.167,390.5 458.5,390.5C 453.825,369.485 440.825,360.985 419.5,365C 405.955,368.883 397.455,377.716 394,391.5C 389.163,410.58 389.496,429.58 395,448.5C 406.164,472.322 423.664,478.489 447.5,467C 453.521,461.625 457.187,454.959 458.5,447C 472.496,446.5 486.496,446.333 500.5,446.5C 496.703,473.142 482.036,490.975 456.5,500C 428.769,508.47 402.435,505.47 377.5,491C 358.212,475.199 348.045,454.699 347,429.5C 344.054,404.287 349.72,381.287 364,360.5C 377.844,344.143 395.344,334.476 416.5,331.5 Z"/></g>
<g><path style="opacity:1" fill="#fefefe" d="M 730.5,334.5 C 747.846,334.167 765.179,334.5 782.5,335.5C 803.841,372.845 824.674,410.512 845,448.5C 844.548,410.513 844.048,372.513 843.5,334.5C 857.167,334.5 870.833,334.5 884.5,334.5C 884.5,390.167 884.5,445.833 884.5,501.5C 867.497,501.667 850.497,501.5 833.5,501C 811.953,463.409 790.786,425.576 770,387.5C 770.481,425.445 770.648,463.445 770.5,501.5C 757.167,501.5 743.833,501.5 730.5,501.5C 730.5,445.833 730.5,390.167 730.5,334.5 Z"/></g>
<g><path style="opacity:1" fill="#fefefe" d="M 130.5,335.5 C 162.168,335.333 193.835,335.5 225.5,336C 256.896,340.73 271.063,358.896 268,390.5C 265.366,408.801 255.199,420.634 237.5,426C 241.24,427.29 244.407,429.457 247,432.5C 250.172,436.841 252.839,441.508 255,446.5C 260.297,464.861 266.13,483.028 272.5,501C 257.837,501.5 243.17,501.667 228.5,501.5C 223.518,485.91 218.684,470.244 214,454.5C 211.874,447.376 207.374,442.543 200.5,440C 190.971,438.965 181.471,438.131 172,437.5C 171.5,458.831 171.333,480.164 171.5,501.5C 157.833,501.5 144.167,501.5 130.5,501.5C 130.5,446.167 130.5,390.833 130.5,335.5 Z"/></g>
<g><path style="opacity:1" fill="#fefefe" d="M 550.5,335.5 C 582.875,335.037 615.208,335.537 647.5,337C 673.217,343.241 686.217,359.741 686.5,386.5C 687.569,416.921 673.236,435.088 643.5,441C 626.914,443.212 610.248,444.046 593.5,443.5C 593.5,462.833 593.5,482.167 593.5,501.5C 579.167,501.5 564.833,501.5 550.5,501.5C 550.5,446.167 550.5,390.833 550.5,335.5 Z"/></g>
<g><path style="opacity:1" fill="#090909" d="M 171.5,366.5 C 182.172,366.333 192.839,366.5 203.5,367C 221.076,367.974 228.243,377.141 225,394.5C 222.768,399.731 218.935,403.231 213.5,405C 209.584,406.102 205.584,406.769 201.5,407C 191.506,407.5 181.506,407.666 171.5,407.5C 171.5,393.833 171.5,380.167 171.5,366.5 Z"/></g>
<g><path style="opacity:1" fill="#0a0909" d="M 593.5,367.5 C 606.228,367.08 618.894,367.58 631.5,369C 639.836,372.998 643.836,379.664 643.5,389C 642.759,404.065 634.759,411.065 619.5,410C 610.84,410.5 602.173,410.666 593.5,410.5C 593.5,396.167 593.5,381.833 593.5,367.5 Z"/></g>
<g><path style="opacity:1" fill="#fcfcfc" d="M 307.5,459.5 C 326.333,458.832 335.166,467.832 334,486.5C 327.647,501.512 316.814,506.012 301.5,500C 287.255,488.145 286.922,475.811 300.5,463C 302.925,461.787 305.259,460.621 307.5,459.5 Z"/></g>
<g><path style="opacity:1" fill="#fcfcfc" d="M 684.5,464.5 C 702.698,466.526 708.865,476.193 703,493.5C 695.513,503.154 686.347,504.987 675.5,499C 668.037,491.65 666.537,483.15 671,473.5C 674.528,468.834 679.028,465.834 684.5,464.5 Z"/></g>
<g><path style="opacity:1" fill="#fcfcfc" d="M 513.5,467.5 C 531.086,466.392 538.252,474.392 535,491.5C 530.133,500.849 522.633,504.016 512.5,501C 502.883,495.823 499.717,487.99 503,477.5C 505.738,473.26 509.238,469.926 513.5,467.5 Z"/></g>
<g><path style="opacity:1" fill="#f4f4f4" d="M 761.5,545.5 C 764.518,545.335 767.518,545.502 770.5,546C 768.081,549.445 764.914,551.612 761,552.5C 759.833,552.333 758.667,552.167 757.5,552C 759.058,549.948 760.392,547.781 761.5,545.5 Z"/></g>
<g><path style="opacity:1" fill="#f9f9f9" d="M 212.5,553.5 C 218.072,552.99 223.405,553.823 228.5,556C 230.782,558.397 232.116,561.231 232.5,564.5C 227.867,566.744 224.533,565.577 222.5,561C 218.577,558.691 215.077,559.191 212,562.5C 211.289,564.367 211.789,565.867 213.5,567C 217.489,568.331 221.489,569.665 225.5,571C 232.358,573.549 234.858,578.383 233,585.5C 231.437,588.728 228.937,590.895 225.5,592C 215.51,594.994 208.177,591.994 203.5,583C 207.401,579.35 210.735,579.85 213.5,584.5C 217.051,586.975 220.717,587.142 224.5,585C 225.833,583 225.833,581 224.5,579C 219.167,577 213.833,575 208.5,573C 202.962,568.607 202.129,563.441 206,557.5C 208.314,556.267 210.481,554.933 212.5,553.5 Z"/></g>
<g><path style="opacity:1" fill="#f9f8f9" d="M 265.5,553.5 C 271.072,552.99 276.405,553.823 281.5,556C 283.782,558.397 285.116,561.231 285.5,564.5C 282.833,564.833 280.167,565.167 277.5,565.5C 275.8,559.658 272.134,558.158 266.5,561C 264.789,562.133 264.289,563.633 265,565.5C 269.058,568.3 273.558,570.134 278.5,571C 286.346,574.224 288.513,579.724 285,587.5C 283.269,589.617 281.102,591.117 278.5,592C 268.51,594.994 261.177,591.994 256.5,583C 257.609,581.139 259.275,580.305 261.5,580.5C 263.995,581.303 265.995,582.803 267.5,585C 270.833,585.667 274.167,585.667 277.5,585C 278.833,583 278.833,581 277.5,579C 272.167,577 266.833,575 261.5,573C 256.528,569.473 255.362,564.973 258,559.5C 260.114,556.879 262.614,554.879 265.5,553.5 Z"/></g>
<g><path style="opacity:1" fill="#f9f9f9" d="M 412.5,553.5 C 422.137,552.477 428.803,556.31 432.5,565C 430.153,565.436 427.819,565.936 425.5,566.5C 423.611,564.568 421.611,562.735 419.5,561C 413.653,559.672 409.82,561.839 408,567.5C 406.777,573.379 407.611,578.879 410.5,584C 413.702,585.483 417.036,585.817 420.5,585C 422.607,583.736 423.607,581.903 423.5,579.5C 426.625,579.865 429.625,580.698 432.5,582C 427.039,592.408 418.706,595.408 407.5,591C 399.335,584.843 396.501,576.676 399,566.5C 401.442,559.888 405.942,555.555 412.5,553.5 Z"/></g>
<g><path style="opacity:1" fill="#f9f9f9" d="M 518.5,553.5 C 524.233,552.895 529.566,554.062 534.5,557C 536.782,559.397 538.116,562.231 538.5,565.5C 536.658,565.723 534.825,566.057 533,566.5C 530.735,564.831 528.568,562.997 526.5,561C 517.888,560.441 513.555,564.608 513.5,573.5C 513.778,583.96 518.778,587.46 528.5,584C 530.968,578.838 534.301,578.338 538.5,582.5C 534.248,591.321 527.248,594.487 517.5,592C 511.693,590.193 507.859,586.36 506,580.5C 502.816,567.817 506.982,558.817 518.5,553.5 Z"/></g>
<g><path style="opacity:1" fill="#f9f9f9" d="M 732.5,553.5 C 738.189,553.089 743.522,554.256 748.5,557C 750.782,559.397 752.116,562.231 752.5,565.5C 750.266,565.38 748.099,565.713 746,566.5C 742.997,560.634 738.497,559.134 732.5,562C 726.335,569.017 726.002,576.351 731.5,584C 737.811,586.966 742.645,585.466 746,579.5C 748.5,580.333 751,581.167 753.5,582C 748.598,591.312 740.932,594.645 730.5,592C 720.58,586.307 717.08,577.807 720,566.5C 722.353,560.315 726.52,555.982 732.5,553.5 Z"/></g>
<g><path style="opacity:1" fill="#f9f9f9" d="M 835.5,553.5 C 845.136,551.981 851.802,555.648 855.5,564.5C 852.673,565.932 849.673,566.599 846.5,566.5C 846.548,563.708 845.215,561.875 842.5,561C 836.146,559.67 832.313,562.17 831,568.5C 829.348,574.964 830.848,580.464 835.5,585C 841.383,586.922 845.549,585.089 848,579.5C 849.734,580.249 851.567,580.749 853.5,581C 854.308,581.308 854.975,581.808 855.5,582.5C 849.821,592.431 841.488,595.264 830.5,591C 821.95,584.003 819.45,575.17 823,564.5C 825.505,558.822 829.671,555.155 835.5,553.5 Z"/></g>
<g><path style="opacity:1" fill="#fbfbfb" d="M 131.5,554.5 C 138.841,554.334 146.174,554.5 153.5,555C 161.534,557.905 164.034,563.405 161,571.5C 158.921,573.79 156.421,575.457 153.5,576.5C 157.03,581.532 160.364,586.699 163.5,592C 160.118,592.824 156.784,592.657 153.5,591.5C 150.8,587.296 148.3,582.963 146,578.5C 143.959,577.577 141.792,577.244 139.5,577.5C 139.5,582.5 139.5,587.5 139.5,592.5C 136.833,592.5 134.167,592.5 131.5,592.5C 131.5,579.833 131.5,567.167 131.5,554.5 Z"/></g>
<g><path style="opacity:1" fill="#fdfdfd" d="M 240.5,554.5 C 243.167,554.5 245.833,554.5 248.5,554.5C 248.5,566.833 248.5,579.167 248.5,591.5C 245.833,591.5 243.167,591.5 240.5,591.5C 240.5,579.167 240.5,566.833 240.5,554.5 Z"/></g>
<g><path style="opacity:1" fill="#f8f7f7" d="M 288.5,554.5 C 299.167,554.5 309.833,554.5 320.5,554.5C 320.5,556.833 320.5,559.167 320.5,561.5C 316.5,561.5 312.5,561.5 308.5,561.5C 308.5,571.833 308.5,582.167 308.5,592.5C 305.833,592.5 303.167,592.5 300.5,592.5C 300.5,582.167 300.5,571.833 300.5,561.5C 296.5,561.5 292.5,561.5 288.5,561.5C 288.5,559.167 288.5,556.833 288.5,554.5 Z"/></g>
<g><path style="opacity:1" fill="#fafafa" d="M 325.5,554.5 C 334.167,554.5 342.833,554.5 351.5,554.5C 351.5,556.833 351.5,559.167 351.5,561.5C 345.5,561.5 339.5,561.5 333.5,561.5C 333.5,564.167 333.5,566.833 333.5,569.5C 338.833,569.5 344.167,569.5 349.5,569.5C 349.5,571.833 349.5,574.167 349.5,576.5C 344.167,576.5 338.833,576.5 333.5,576.5C 333.5,579.5 333.5,582.5 333.5,585.5C 339.5,585.5 345.5,585.5 351.5,585.5C 351.5,587.833 351.5,590.167 351.5,592.5C 342.833,592.5 334.167,592.5 325.5,592.5C 325.5,579.833 325.5,567.167 325.5,554.5 Z"/></g>
<g><path style="opacity:1" fill="#fbfbfb" d="M 358.5,553.5 C 361.898,553.18 365.232,553.513 368.5,554.5C 372.747,562.662 377.247,570.662 382,578.5C 382.5,570.507 382.666,562.507 382.5,554.5C 385.167,554.5 387.833,554.5 390.5,554.5C 390.5,567.167 390.5,579.833 390.5,592.5C 387.223,592.784 384.057,592.451 381,591.5C 376.587,583.005 371.92,574.672 367,566.5C 366.5,575.16 366.334,583.827 366.5,592.5C 363.833,592.5 361.167,592.5 358.5,592.5C 358.5,579.5 358.5,566.5 358.5,553.5 Z"/></g>
<g><path style="opacity:1" fill="#fafafa" d="M 465.5,554.5 C 469.106,554.211 472.606,554.544 476,555.5C 480.474,567.757 484.641,580.09 488.5,592.5C 485.5,592.5 482.5,592.5 479.5,592.5C 479.452,589.687 478.785,587.021 477.5,584.5C 472.88,583.507 468.214,583.173 463.5,583.5C 462.833,586.5 462.167,589.5 461.5,592.5C 458.482,592.665 455.482,592.498 452.5,592C 457.33,579.676 461.664,567.176 465.5,554.5 Z"/></g>
<g><path style="opacity:1" fill="#fbfbfb" d="M 545.5,554.5 C 548.167,554.5 550.833,554.5 553.5,554.5C 553.5,566.833 553.5,579.167 553.5,591.5C 550.833,591.5 548.167,591.5 545.5,591.5C 545.5,579.167 545.5,566.833 545.5,554.5 Z"/></g>
<g><path style="opacity:1" fill="#f9f9f9" d="M 557.5,555.5 C 560.625,554.521 563.958,554.187 567.5,554.5C 570.02,564.231 572.854,573.898 576,583.5C 579.551,574.016 582.385,564.349 584.5,554.5C 587.572,554.183 590.572,554.516 593.5,555.5C 589.089,567.733 585.089,580.067 581.5,592.5C 577.833,592.5 574.167,592.5 570.5,592.5C 566.738,579.878 562.405,567.544 557.5,555.5 Z"/></g>
<g><path style="opacity:1" fill="#fbfbfb" d="M 598.5,554.5 C 601.167,554.5 603.833,554.5 606.5,554.5C 606.5,566.833 606.5,579.167 606.5,591.5C 603.833,591.5 601.167,591.5 598.5,591.5C 598.5,579.167 598.5,566.833 598.5,554.5 Z"/></g>
<g><path style="opacity:1" fill="#fdfdfd" d="M 614.5,553.5 C 617.167,553.5 619.833,553.5 622.5,553.5C 622.5,564.167 622.5,574.833 622.5,585.5C 628.5,585.5 634.5,585.5 640.5,585.5C 640.5,587.833 640.5,590.167 640.5,592.5C 631.833,592.5 623.167,592.5 614.5,592.5C 614.5,579.5 614.5,566.5 614.5,553.5 Z"/></g>
<g><path style="opacity:1" fill="#fdfdfd" d="M 657.5,554.5 C 664.175,554.334 670.842,554.5 677.5,555C 684.628,557.758 687.128,562.924 685,570.5C 683.833,573.667 681.667,575.833 678.5,577C 674.179,577.499 669.846,577.666 665.5,577.5C 665.5,582.5 665.5,587.5 665.5,592.5C 662.833,592.5 660.167,592.5 657.5,592.5C 657.5,579.833 657.5,567.167 657.5,554.5 Z"/></g>
<g><path style="opacity:1" fill="#f9f9f9" d="M 694.5,554.5 C 698.437,554.207 702.27,554.54 706,555.5C 710.474,567.757 714.641,580.09 718.5,592.5C 715.5,592.5 712.5,592.5 709.5,592.5C 709.149,589.762 708.482,587.096 707.5,584.5C 702.833,583.167 698.167,583.167 693.5,584.5C 692.215,587.021 691.548,589.687 691.5,592.5C 688.482,592.665 685.482,592.498 682.5,592C 687.203,579.725 691.203,567.225 694.5,554.5 Z"/></g>
<g><path style="opacity:1" fill="#fefefe" d="M 807.5,554.5 C 809.833,554.5 812.167,554.5 814.5,554.5C 814.5,566.833 814.5,579.167 814.5,591.5C 812.167,591.5 809.833,591.5 807.5,591.5C 807.5,579.167 807.5,566.833 807.5,554.5 Z"/></g>
<g><path style="opacity:1" fill="#fafafa" d="M 871.5,554.5 C 875.673,553.956 879.506,554.623 883,556.5C 886.778,568.501 890.944,580.334 895.5,592C 887.725,594.313 884.058,591.48 884.5,583.5C 879.821,583.334 875.155,583.501 870.5,584C 869.347,586.616 868.347,589.282 867.5,592C 864.773,592.818 862.106,592.652 859.5,591.5C 863.907,579.278 867.907,566.945 871.5,554.5 Z"/></g>
<g><path style="opacity:1" fill="#fcfcfc" d="M 169.5,554.5 C 178.5,554.5 187.5,554.5 196.5,554.5C 196.5,556.833 196.5,559.167 196.5,561.5C 190.167,561.5 183.833,561.5 177.5,561.5C 177.5,564.167 177.5,566.833 177.5,569.5C 183.167,569.5 188.833,569.5 194.5,569.5C 194.5,571.833 194.5,574.167 194.5,576.5C 188.833,576.5 183.167,576.5 177.5,576.5C 177.5,579.5 177.5,582.5 177.5,585.5C 183.833,585.5 190.167,585.5 196.5,585.5C 196.5,587.833 196.5,590.167 196.5,592.5C 187.5,592.5 178.5,592.5 169.5,592.5C 169.5,579.833 169.5,567.167 169.5,554.5 Z"/></g>
<g><path style="opacity:1" fill="#fbfbfb" d="M 439.5,554.5 C 442.167,554.5 444.833,554.5 447.5,554.5C 447.5,567.167 447.5,579.833 447.5,592.5C 444.833,592.5 442.167,592.5 439.5,592.5C 439.5,579.833 439.5,567.167 439.5,554.5 Z"/></g>
<g><path style="opacity:1" fill="#fefefe" d="M 759.5,555.5 C 762.167,555.5 764.833,555.5 767.5,555.5C 767.5,567.833 767.5,580.167 767.5,592.5C 764.833,592.5 762.167,592.5 759.5,592.5C 759.5,580.167 759.5,567.833 759.5,555.5 Z"/></g>
<g><path style="opacity:1" fill="#f8f7f7" d="M 775.5,554.5 C 784.167,554.5 792.833,554.5 801.5,554.5C 801.5,556.833 801.5,559.167 801.5,561.5C 795.833,561.5 790.167,561.5 784.5,561.5C 784.5,564.5 784.5,567.5 784.5,570.5C 789.5,570.5 794.5,570.5 799.5,570.5C 799.5,572.833 799.5,575.167 799.5,577.5C 794.5,577.5 789.5,577.5 784.5,577.5C 784.5,582.5 784.5,587.5 784.5,592.5C 781.5,592.5 778.5,592.5 775.5,592.5C 775.5,579.833 775.5,567.167 775.5,554.5 Z"/></g>
<g><path style="opacity:1" fill="#100f0f" d="M 665.5,560.5 C 669.839,559.846 673.673,560.846 677,563.5C 678.212,566.834 677.379,569.334 674.5,571C 671.518,571.498 668.518,571.665 665.5,571.5C 665.5,567.833 665.5,564.167 665.5,560.5 Z"/></g>
<g><path style="opacity:1" fill="#0f0e0e" d="M 139.5,560.5 C 143.605,560.234 147.605,560.734 151.5,562C 154.167,564.667 154.167,567.333 151.5,570C 147.514,570.499 143.514,570.666 139.5,570.5C 139.5,567.167 139.5,563.833 139.5,560.5 Z"/></g>
<g><path style="opacity:1" fill="#0e0e0e" d="M 876.5,562.5 C 878.935,566.799 880.602,571.466 881.5,576.5C 878.5,576.5 875.5,576.5 872.5,576.5C 873.833,571.834 875.166,567.167 876.5,562.5 Z"/></g>
<g><path style="opacity:1" fill="#0e0e0e" d="M 469.5,562.5 C 470.586,562.62 471.253,563.287 471.5,564.5C 472.541,568.457 473.874,572.29 475.5,576C 472.167,576.667 468.833,576.667 465.5,576C 467.541,571.711 468.874,567.211 469.5,562.5 Z"/></g>
<g><path style="opacity:1" fill="#a3a3a3" d="M 807.5,554.5 C 807.5,566.833 807.5,579.167 807.5,591.5C 809.833,591.5 812.167,591.5 814.5,591.5C 812.052,592.473 809.385,592.806 806.5,592.5C 806.171,579.656 806.505,566.989 807.5,554.5 Z"/></g>
<g><path style="opacity:1" fill="#0a0a0a" d="M 699.5,562.5 C 700.497,562.47 701.164,562.97 701.5,564C 702.44,568.153 703.773,572.153 705.5,576C 702.167,576.667 698.833,576.667 695.5,576C 697.541,571.711 698.874,567.211 699.5,562.5 Z"/></g>
<g><path style="opacity:1" fill="#fcfcfc" d="M 367.5,615.5 C 370.777,615.216 373.943,615.549 377,616.5C 381.92,624.672 386.587,633.005 391,641.5C 391.5,632.84 391.666,624.173 391.5,615.5C 394.167,615.5 396.833,615.5 399.5,615.5C 399.5,628.5 399.5,641.5 399.5,654.5C 396.223,654.784 393.057,654.451 390,653.5C 385.392,645.27 380.559,637.27 375.5,629.5C 374.493,636.106 374.159,644.106 374.5,653.5C 372.167,653.5 369.833,653.5 367.5,653.5C 367.5,640.833 367.5,628.167 367.5,615.5 Z"/></g>
<g><path style="opacity:1" fill="#fafafa" d="M 418.5,615.5 C 422.167,615.5 425.833,615.5 429.5,615.5C 433.334,628.169 437.667,640.669 442.5,653C 435.023,655.653 431.357,653.153 431.5,645.5C 426.5,645.5 421.5,645.5 416.5,645.5C 416.149,648.238 415.482,650.904 414.5,653.5C 411.833,654.833 409.167,654.833 406.5,653.5C 411.11,641.004 415.11,628.337 418.5,615.5 Z"/></g>
<g><path style="opacity:1" fill="#f8f8f8" d="M 456.5,615.5 C 464.187,613.996 470.687,615.996 476,621.5C 477.128,623.345 477.628,625.345 477.5,627.5C 474.794,627.575 472.127,627.908 469.5,628.5C 469.607,626.097 468.607,624.264 466.5,623C 459.416,620.957 454.916,623.457 453,630.5C 452.124,635.995 453.291,640.995 456.5,645.5C 462.855,648.946 467.855,647.613 471.5,641.5C 474.041,641.881 476.374,642.714 478.5,644C 473.918,653.093 466.584,656.427 456.5,654C 445.509,648.501 441.676,639.667 445,627.5C 447.045,621.624 450.878,617.624 456.5,615.5 Z"/></g>
<g><path style="opacity:1" fill="#f9f9f9" d="M 514.5,615.5 C 531.613,613.782 539.78,621.449 539,638.5C 535.829,651.309 527.662,656.475 514.5,654C 503.322,648.494 499.489,639.66 503,627.5C 505.045,621.624 508.878,617.624 514.5,615.5 Z"/></g>
<g><path style="opacity:1" fill="#fbfbfb" d="M 546.5,615.5 C 549.898,615.18 553.232,615.513 556.5,616.5C 561.333,624.833 566.167,633.167 571,641.5C 571.5,632.84 571.666,624.173 571.5,615.5C 574.167,615.5 576.833,615.5 579.5,615.5C 579.5,628.5 579.5,641.5 579.5,654.5C 576.223,654.784 573.057,654.451 570,653.5C 565,644.833 560,636.167 555,627.5C 554.5,636.16 554.334,644.827 554.5,653.5C 551.833,653.5 549.167,653.5 546.5,653.5C 546.5,640.833 546.5,628.167 546.5,615.5 Z"/></g>
<g><path style="opacity:1" fill="#f9f9f9" d="M 621.5,652.5 C 619.052,653.473 616.385,653.806 613.5,653.5C 612.525,650.933 611.858,648.267 611.5,645.5C 606.5,645.5 601.5,645.5 596.5,645.5C 596.38,648.48 595.713,651.313 594.5,654C 591.854,654.497 589.187,654.664 586.5,654.5C 590.651,641.569 594.651,628.569 598.5,615.5C 602.167,615.5 605.833,615.5 609.5,615.5C 613.1,627.968 617.1,640.301 621.5,652.5 Z"/></g>
<g><path style="opacity:1" fill="#f5f5f5" d="M 484.5,616.5 C 487.5,616.5 490.5,616.5 493.5,616.5C 493.5,629.167 493.5,641.833 493.5,654.5C 490.5,654.5 487.5,654.5 484.5,654.5C 484.5,641.833 484.5,629.167 484.5,616.5 Z"/></g>
<g><path style="opacity:1" fill="#fafafa" d="M 628.5,616.5 C 631.167,616.5 633.833,616.5 636.5,616.5C 636.5,626.5 636.5,636.5 636.5,646.5C 642.5,646.5 648.5,646.5 654.5,646.5C 654.5,649.167 654.5,651.833 654.5,654.5C 645.833,654.5 637.167,654.5 628.5,654.5C 628.5,641.833 628.5,629.167 628.5,616.5 Z"/></g>
<g><path style="opacity:1" fill="#0b0b0b" d="M 518.5,621.5 C 524.402,621.24 528.235,623.907 530,629.5C 530.81,634.257 530.476,638.924 529,643.5C 523.942,648.383 518.609,648.716 513,644.5C 510.077,638.675 509.744,632.675 512,626.5C 513.805,624.174 515.972,622.508 518.5,621.5 Z"/></g>
<g><path style="opacity:1" fill="#0a0a0a" d="M 603.5,623.5 C 605.739,628.216 607.405,633.216 608.5,638.5C 605.5,638.5 602.5,638.5 599.5,638.5C 600.833,633.5 602.167,628.5 603.5,623.5 Z"/></g>
<g><path style="opacity:1" fill="#0d0c0c" d="M 423.5,623.5 C 425.739,628.216 427.405,633.216 428.5,638.5C 425.5,638.5 422.5,638.5 419.5,638.5C 420.833,633.5 422.167,628.5 423.5,623.5 Z"/></g>
<g><path style="opacity:1" fill="#797878" d="M 367.5,615.5 C 367.5,628.167 367.5,640.833 367.5,653.5C 369.833,653.5 372.167,653.5 374.5,653.5C 374.159,644.106 374.493,636.106 375.5,629.5C 375.5,637.833 375.5,646.167 375.5,654.5C 372.5,654.5 369.5,654.5 366.5,654.5C 366.171,641.323 366.505,628.323 367.5,615.5 Z"/></g>
<g><path style="opacity:1" fill="#605f60" d="M 621.5,652.5 C 622.043,652.56 622.376,652.893 622.5,653.5C 619.355,654.803 616.355,654.803 613.5,653.5C 616.385,653.806 619.052,653.473 621.5,652.5 Z"/></g>
</svg>
