<?xml version="1.0" standalone="no"?>
<!DOCTYPE svg PUBLIC "-//W3C//DTD SVG 20010904//EN"
 "http://www.w3.org/TR/2001/REC-SVG-20010904/DTD/svg10.dtd">
<svg version="1.0" xmlns="http://www.w3.org/2000/svg"
 width="1024.000000pt" height="1024.000000pt" viewBox="0 0 1024.000000 1024.000000"
 preserveAspectRatio="xMidYMid meet">

<g transform="translate(0.000000,1024.000000) scale(0.100000,-0.100000)"
fill="#000000" stroke="none">
<path d="M4815 9174 c-1283 -103 -2411 -779 -3079 -1844 -37 -58 -106 -184
-155 -280 -231 -455 -363 -896 -423 -1415 -19 -170 -16 -656 6 -840 80 -674
302 -1270 684 -1830 588 -867 1559 -1489 2597 -1665 279 -47 378 -55 690 -54
379 1 634 31 965 115 701 178 1357 558 1865 1080 623 641 1000 1430 1112 2329
25 205 25 723 0 930 -94 757 -369 1415 -840 2009 -117 148 -441 475 -577 583
-521 415 -1093 681 -1740 812 -264 54 -413 68 -745 71 -170 1 -332 1 -360 -1z
m508 -679 c857 -100 1570 -599 1943 -1360 156 -317 244 -684 244 -1011 l0
-112 -31 -26 c-29 -25 -36 -26 -155 -26 -121 0 -124 1 -154 28 -28 25 -31 34
-35 107 -13 205 -18 256 -36 358 -11 60 -40 170 -64 245 -218 664 -776 1188
-1454 1363 -163 42 -284 60 -460 68 -150 7 -155 8 -177 34 -28 33 -38 97 -31
192 6 85 17 109 60 135 40 25 165 27 350 5z m-1478 -584 c28 -16 74 -50 103
-76 76 -68 74 -81 -39 -252 -117 -177 -146 -213 -170 -213 -23 0 -307 126
-327 144 -10 10 12 48 108 189 67 97 137 190 156 206 46 41 100 42 169 2z
m1422 -166 c405 -57 749 -234 1031 -530 263 -275 414 -610 453 -1004 15 -148
9 -198 -26 -228 -24 -21 -35 -23 -155 -23 -121 0 -131 2 -156 23 -25 22 -28
31 -35 137 -19 257 -87 457 -227 669 -72 110 -220 262 -329 341 -210 150 -502
250 -730 250 -89 0 -136 18 -157 59 -19 36 -22 226 -5 265 26 57 133 70 336
41z m-1068 -25 c68 -31 169 -108 202 -152 36 -50 38 -97 6 -153 -29 -50 -348
-478 -353 -473 -1 2 3 22 11 43 20 56 18 132 -5 182 -20 46 -97 103 -185 140
-25 10 -45 23 -45 29 0 20 209 348 240 377 36 32 68 34 129 7z m-591 -377
c324 -140 354 -155 381 -189 47 -59 13 -163 -71 -217 -100 -65 -251 -58 -454
20 -11 4 -104 -144 -104 -165 0 -5 33 -24 73 -42 238 -106 483 -352 576 -579
34 -80 55 -151 72 -238 6 -35 15 -63 20 -63 10 0 33 80 78 275 26 109 42 161
52 163 8 1 59 -22 114 -53 55 -30 124 -64 153 -75 l52 -20 172 176 c95 97 186
185 202 197 l29 21 -6 -90 c-12 -174 -66 -316 -239 -633 l-113 -206 -3 -379
c-2 -255 -6 -384 -14 -393 -15 -18 -1188 -19 -1206 -1 -19 19 -15 57 38 452
28 203 50 383 50 401 0 18 -10 47 -23 66 -13 19 -95 135 -183 259 -276 388
-455 649 -470 685 -8 19 -12 45 -9 58 3 12 101 166 218 342 229 345 244 362
315 350 19 -4 154 -58 300 -122z m981 48 c34 -22 171 -180 189 -218 14 -30 14
-36 0 -65 -27 -57 -452 -559 -491 -579 -32 -17 -117 32 -187 108 -70 77 -79
100 -56 151 28 61 429 605 456 619 27 14 51 9 89 -16z m302 -361 c25 0 199
-198 199 -227 0 -12 -535 -533 -548 -533 -5 0 -48 41 -96 91 -58 61 -86 98
-86 114 0 26 -2 24 205 265 236 276 267 306 303 294 8 -2 18 -4 23 -4z m846
-310 c68 -34 119 -86 155 -159 18 -37 23 -63 23 -131 0 -73 -4 -93 -28 -142
-33 -67 -90 -121 -166 -157 -46 -21 -70 -26 -136 -25 -103 0 -166 27 -233 98
-122 128 -122 319 -2 450 41 45 103 82 164 97 58 15 157 1 223 -31z m-1099
-2145 c196 -46 336 -192 391 -407 11 -41 21 -92 23 -113 l3 -40 -164 0 -164 0
-14 69 c-35 174 -128 257 -269 243 -64 -7 -104 -27 -152 -77 -107 -110 -160
-341 -149 -655 10 -296 72 -468 194 -541 98 -58 199 -52 279 19 52 46 99 134
110 205 l7 45 66 -7 c36 -3 108 -6 159 -6 108 0 105 5 72 -126 -55 -219 -174
-355 -367 -420 -66 -22 -96 -27 -193 -27 -270 -2 -448 104 -559 334 -82 172
-110 320 -111 591 0 267 27 410 112 587 41 86 62 116 121 175 79 77 164 126
264 150 78 19 262 20 341 1z m-1382 -27 c230 -69 363 -264 364 -534 0 -201
-69 -343 -211 -430 -32 -20 -59 -41 -59 -46 0 -8 159 -394 305 -740 l15 -38
-174 0 -175 0 -142 360 -143 360 -98 0 -98 0 0 -360 0 -360 -160 0 -160 0 0
906 0 906 343 -5 c269 -3 353 -7 393 -19z m2681 6 c196 -40 336 -171 389 -364
8 -30 17 -102 21 -160 18 -319 -130 -537 -403 -595 -42 -9 -125 -15 -211 -15
l-143 0 0 -330 0 -330 -160 0 -160 0 0 905 0 905 295 0 c231 0 313 -3 372 -16z
m1080 -282 c228 -511 369 -826 386 -857 15 -28 16 11 17 563 l0 592 150 0 150
0 0 -905 0 -905 -160 2 -161 3 -268 598 c-147 328 -271 600 -274 604 -4 3 -7
-267 -7 -600 l0 -607 -150 0 -150 0 0 905 0 905 168 0 167 0 132 -298z"/>
<path d="M3881 5562 c18 -20 55 -60 82 -88 l48 -51 8 -207 c5 -114 12 -210 15
-213 3 -4 6 3 6 14 0 45 82 389 97 405 8 9 53 42 99 73 46 31 84 58 84 60 0 1
-19 -1 -42 -6 -103 -20 -271 -6 -376 31 l-56 20 35 -38z"/>
<path d="M2840 4021 l0 -281 111 0 c149 0 192 12 250 71 56 55 79 119 79 215
0 115 -49 203 -140 250 -27 15 -64 19 -167 22 l-133 4 0 -281z"/>
<path d="M5590 3996 l0 -316 114 0 c121 0 162 9 214 47 78 58 118 224 88 369
-20 98 -54 150 -118 182 -40 20 -67 25 -173 28 l-125 5 0 -315z"/>
</g>
</svg>
